<svg width="40" height="40" viewBox="0 0 40 40" fill="none" xmlns="http://www.w3.org/2000/svg">
<path d="M1.25 10.625H25.9375C26.3519 10.625 26.7493 10.7896 27.0424 11.0826C27.3354 11.3757 27.5 11.7731 27.5 12.1875V27.8125C27.5 28.2269 27.3354 28.6243 27.0424 28.9174C26.7493 29.2104 26.3519 29.375 25.9375 29.375H2.8125C2.3981 29.375 2.00067 29.2104 1.70765 28.9174C1.41462 28.6243 1.25 28.2269 1.25 27.8125V10.625Z" fill="#3E3D42"/>
<path d="M27.5 16.25H32.5V23.75H27.5V16.25Z" fill="#2D2D30"/>
<path d="M36.875 11.875H38.75V28.125H36.875V11.875Z" fill="#787680"/>
<path d="M36.875 27.5L32.5 23.75V16.25L36.875 12.5V27.5Z" fill="#3E3D42"/>
<path d="M12.5 10.625H1.25V7.1875C1.25 6.7731 1.41462 6.37567 1.70765 6.08265C2.00067 5.78962 2.3981 5.625 2.8125 5.625H10L12.5 10.625Z" fill="#2D2D30"/>
<path d="M16.25 1.875H21.25C21.913 1.875 22.5489 2.13839 23.0178 2.60723C23.4866 3.07607 23.75 3.71196 23.75 4.375C23.75 5.03804 23.4866 5.67393 23.0178 6.14277C22.5489 6.61161 21.913 6.875 21.25 6.875H16.25V1.875Z" fill="#787680"/>
<path d="M16.25 5.625H5L7.5 3.125H16.25V5.625Z" fill="#3E3D42"/>
<path d="M4.375 15C5.06536 15 5.625 14.4404 5.625 13.75C5.625 13.0596 5.06536 12.5 4.375 12.5C3.68464 12.5 3.125 13.0596 3.125 13.75C3.125 14.4404 3.68464 15 4.375 15Z" fill="#FFDA44"/>
<path d="M8.75 15C9.44036 15 10 14.4404 10 13.75C10 13.0596 9.44036 12.5 8.75 12.5C8.05964 12.5 7.5 13.0596 7.5 13.75C7.5 14.4404 8.05964 15 8.75 15Z" fill="#FFDA44"/>
<path d="M8.125 16.875H20.625V23.125H8.125V16.875Z" fill="#78B9EB"/>
<path d="M10 29.375H18.75V31.875H10V29.375Z" fill="#2D2D30"/>
<path d="M13.125 31.875H15.625V38.75H13.125V31.875Z" fill="#787680"/>
<path d="M23.75 38.75H21.25L16.25 31.875H18.75L23.75 38.75Z" fill="#787680"/>
<path d="M5 38.75H7.5L12.5 31.875H10L5 38.75Z" fill="#787680"/>
<path d="M38.75 11.25H36.875C36.7092 11.25 36.5503 11.3158 36.4331 11.4331C36.3158 11.5503 36.25 11.7092 36.25 11.875V12.2125L32.2688 15.625H28.125V12.1875C28.1244 11.6075 27.8937 11.0515 27.4836 10.6414C27.0735 10.2313 26.5175 10.0006 25.9375 10H12.8859L11.0109 6.25H15.625V6.875C15.625 7.04076 15.6908 7.19973 15.8081 7.31694C15.9253 7.43415 16.0842 7.5 16.25 7.5H21.25C22.0788 7.5 22.8737 7.17076 23.4597 6.58471C24.0458 5.99866 24.375 5.2038 24.375 4.375C24.375 3.5462 24.0458 2.75134 23.4597 2.16529C22.8737 1.57924 22.0788 1.25 21.25 1.25H16.25C16.0842 1.25 15.9253 1.31585 15.8081 1.43306C15.6908 1.55027 15.625 1.70924 15.625 1.875V2.5H7.5C7.3342 2.49994 7.17516 2.56569 7.05781 2.68281L4.74141 5H2.8125C2.23254 5.00064 1.67651 5.23132 1.26641 5.64141C0.856315 6.05151 0.625641 6.60754 0.625 7.1875V27.8125C0.625641 28.3925 0.856315 28.9485 1.26641 29.3586C1.67651 29.7687 2.23254 29.9994 2.8125 30H9.375V31.6719L4.49453 38.382C4.42662 38.4753 4.38583 38.5855 4.37669 38.7005C4.36755 38.8155 4.39041 38.9307 4.44274 39.0335C4.49507 39.1363 4.57483 39.2226 4.67318 39.2829C4.77154 39.3432 4.88465 39.375 5 39.375H7.5C7.59855 39.375 7.69572 39.3518 7.78356 39.3071C7.87141 39.2624 7.94745 39.1976 8.00547 39.118L12.5 32.9375V38.75C12.5 38.9158 12.5658 39.0747 12.6831 39.1919C12.8003 39.3092 12.9592 39.375 13.125 39.375H15.625C15.7908 39.375 15.9497 39.3092 16.0669 39.1919C16.1842 39.0747 16.25 38.9158 16.25 38.75V32.9375L20.7445 39.118C20.8026 39.1976 20.8786 39.2624 20.9664 39.3071C21.0543 39.3518 21.1514 39.375 21.25 39.375H23.75C23.8654 39.375 23.9785 39.3432 24.0768 39.2829C24.1752 39.2226 24.2549 39.1363 24.3073 39.0335C24.3596 38.9307 24.3824 38.8155 24.3733 38.7005C24.3642 38.5855 24.3234 38.4753 24.2555 38.382L19.375 31.6719V30H25.9375C26.5175 29.9994 27.0735 29.7687 27.4836 29.3586C27.8937 28.9485 28.1244 28.3925 28.125 27.8125V24.375H32.2688L36.25 27.7875V28.125C36.25 28.2908 36.3158 28.4497 36.4331 28.5669C36.5503 28.6842 36.7092 28.75 36.875 28.75H38.75C38.9158 28.75 39.0747 28.6842 39.1919 28.5669C39.3092 28.4497 39.375 28.2908 39.375 28.125V11.875C39.375 11.7092 39.3092 11.5503 39.1919 11.4331C39.0747 11.3158 38.9158 11.25 38.75 11.25ZM16.875 2.5H21.25C21.7473 2.5 22.2242 2.69754 22.5758 3.04917C22.9275 3.40081 23.125 3.87772 23.125 4.375C23.125 4.87228 22.9275 5.34919 22.5758 5.70083C22.2242 6.05246 21.7473 6.25 21.25 6.25H16.875V2.5ZM7.75859 3.75H15.625V5H6.50859L7.75859 3.75ZM1.875 7.1875C1.87521 6.93892 1.97405 6.70059 2.14982 6.52482C2.32559 6.34905 2.56392 6.25021 2.8125 6.25H9.61406L11.4891 10H1.875V7.1875ZM7.18203 38.125H6.22734L10.318 32.5H11.2727L7.18203 38.125ZM15 38.125H13.75V32.5H15V38.125ZM10.625 31.25V30H18.125V31.25H10.625ZM22.5227 38.125H21.568L17.4773 32.5H18.432L22.5227 38.125ZM26.875 27.8125C26.8748 28.0611 26.776 28.2994 26.6002 28.4752C26.4244 28.651 26.1861 28.7498 25.9375 28.75H2.8125C2.56392 28.7498 2.32559 28.651 2.14982 28.4752C1.97405 28.2994 1.87521 28.0611 1.875 27.8125V11.25H25.9375C26.1861 11.2502 26.4244 11.349 26.6002 11.5248C26.776 11.7006 26.8748 11.9389 26.875 12.1875V27.8125ZM31.875 23.125H28.125V16.875H31.875V23.125ZM36.25 26.1414L33.125 23.4625V16.5375L36.25 13.8586V26.1414ZM38.125 27.5H37.5V12.5H38.125V27.5Z" fill="black"/>
<path d="M4.375 11.875C4.00416 11.875 3.64165 11.985 3.33331 12.191C3.02496 12.397 2.78464 12.6899 2.64273 13.0325C2.50081 13.3751 2.46368 13.7521 2.53603 14.1158C2.60838 14.4795 2.78695 14.8136 3.04918 15.0758C3.3114 15.338 3.64549 15.5166 4.00921 15.589C4.37292 15.6613 4.74992 15.6242 5.09253 15.4823C5.43514 15.3404 5.72798 15.1 5.93401 14.7917C6.14003 14.4834 6.25 14.1208 6.25 13.75C6.24942 13.2529 6.05169 12.7763 5.70019 12.4248C5.34868 12.0733 4.8721 11.8756 4.375 11.875ZM4.375 14.375C4.25139 14.375 4.13055 14.3383 4.02777 14.2697C3.92499 14.201 3.84488 14.1034 3.79758 13.9892C3.75027 13.875 3.73789 13.7493 3.76201 13.6281C3.78613 13.5068 3.84565 13.3955 3.93306 13.3081C4.02047 13.2206 4.13183 13.1611 4.25307 13.137C4.37431 13.1129 4.49997 13.1253 4.61418 13.1726C4.72838 13.2199 4.82599 13.3 4.89467 13.4028C4.96335 13.5055 5 13.6264 5 13.75C4.99981 13.9157 4.93391 14.0746 4.81674 14.1917C4.69957 14.3089 4.5407 14.3748 4.375 14.375Z" fill="black"/>
<path d="M10.625 13.75C10.625 13.3792 10.515 13.0166 10.309 12.7083C10.103 12.4 9.81014 12.1596 9.46753 12.0177C9.12492 11.8758 8.74792 11.8387 8.38421 11.911C8.02049 11.9834 7.6864 12.162 7.42418 12.4242C7.16195 12.6864 6.98338 13.0205 6.91103 13.3842C6.83868 13.7479 6.87581 14.1249 7.01773 14.4675C7.15964 14.8101 7.39996 15.103 7.70831 15.309C8.01665 15.515 8.37916 15.625 8.75 15.625C9.2471 15.6244 9.72368 15.4267 10.0752 15.0752C10.4267 14.7237 10.6244 14.2471 10.625 13.75ZM8.125 13.75C8.125 13.6264 8.16166 13.5056 8.23033 13.4028C8.29901 13.3 8.39662 13.2199 8.51082 13.1726C8.62503 13.1253 8.75069 13.1129 8.87193 13.137C8.99317 13.1611 9.10453 13.2207 9.19194 13.3081C9.27935 13.3955 9.33887 13.5068 9.36299 13.6281C9.38711 13.7493 9.37473 13.875 9.32742 13.9892C9.28012 14.1034 9.20001 14.201 9.09723 14.2697C8.99445 14.3383 8.87361 14.375 8.75 14.375C8.5843 14.3748 8.42543 14.3089 8.30826 14.1917C8.19109 14.0746 8.12519 13.9157 8.125 13.75Z" fill="black"/>
<path d="M20.625 16.25H8.125C7.95924 16.25 7.80027 16.3158 7.68306 16.4331C7.56585 16.5503 7.5 16.7092 7.5 16.875V23.125C7.5 23.2908 7.56585 23.4497 7.68306 23.5669C7.80027 23.6842 7.95924 23.75 8.125 23.75H20.625C20.7908 23.75 20.9497 23.6842 21.0669 23.5669C21.1842 23.4497 21.25 23.2908 21.25 23.125V16.875C21.25 16.7092 21.1842 16.5503 21.0669 16.4331C20.9497 16.3158 20.7908 16.25 20.625 16.25ZM20 22.5H8.75V17.5H20V22.5Z" fill="black"/>
</svg>