<?xml version="1.0" encoding="iso-8859-1"?>
<!-- Generator: Adobe Illustrator 19.0.0, SVG Export Plug-In . SVG Version: 6.00 Build 0)  -->
<svg version="1.1" id="Capa_1" xmlns="http://www.w3.org/2000/svg" xmlns:xlink="http://www.w3.org/1999/xlink" x="0px" y="0px"
	 viewBox="0 0 511.999 511.999" style="enable-background:new 0 0 511.999 511.999;" xml:space="preserve">
<path style="fill:#96C8EF;" d="M279.243,14.719c-14.025-9.549-32.464-9.549-46.489,0L29.643,153.008
	c-9.574,6.518-15.303,17.351-15.303,28.933v298.196c0,13.455,10.908,24.362,24.362,24.362h434.596
	c13.455,0,24.362-10.908,24.362-24.362V181.941c0-11.583-5.729-22.414-15.303-28.933L279.243,14.719z"/>
<path style="fill:#78B9EB;" d="M473.296,504.501c13.455,0,24.362-10.908,24.362-24.362V181.942c0-11.582-5.729-22.414-15.303-28.934
	l-40.828-27.798l-172.74,104.548c-3.859,2.33-8.281,3.563-12.789,3.563c-4.465,0-8.846-1.209-12.68-3.497L71.402,124.577
	l-41.759,28.432c-9.574,6.518-15.303,17.351-15.303,28.934v298.196c0,13.455,10.908,24.362,24.362,24.362L473.296,504.501
	L473.296,504.501z"/>
<path style="fill:#FFF5CC;" d="M436.124,425.747H75.873V106.542c0-22.668,18.377-41.045,41.045-41.045h278.16
	c22.668,0,41.045,18.377,41.045,41.045V425.747z"/>
<path style="fill:#FFEB99;" d="M268.787,229.76c-3.859,2.33-8.281,3.563-12.789,3.563c-4.465,0-8.846-1.209-12.68-3.497
	L75.873,127.314v298.432h360.25V128.481L268.787,229.76z"/>
<path style="fill:#B9D8F4;" d="M212.198,281.115L19.737,163.29c-3.47,5.508-5.397,11.952-5.397,18.652v298.196
	c0,13.455,10.908,24.362,24.362,24.362h434.596c13.455,0,24.362-10.908,24.362-24.362V181.942c0-6.307-1.71-12.385-4.803-17.672
	L299.8,281.115C272.864,297.381,239.134,297.381,212.198,281.115z"/>
<path style="fill:#D1E7F8;" d="M214.557,282.59L24.909,500.346c3.887,2.623,8.57,4.155,13.61,4.155h434.596
	c5.2,0,10.016-1.635,13.972-4.41l-189.31-217.906C272.007,296.879,240.432,297.02,214.557,282.59z"/>
<path d="M145.725,124.227h220.546c4.142,0,7.499-3.357,7.499-7.499c0-4.143-3.358-7.499-7.499-7.499H145.725
	c-4.142,0-7.499,3.357-7.499,7.499C138.226,120.87,141.584,124.227,145.725,124.227z"/>
<path d="M145.725,163.147h220.546c4.142,0,7.499-3.357,7.499-7.499c0-4.143-3.358-7.499-7.499-7.499H145.725
	c-4.142,0-7.499,3.357-7.499,7.499C138.226,159.791,141.584,163.147,145.725,163.147z"/>
<path d="M145.725,202.066h103.482c4.142,0,7.499-3.357,7.499-7.499c0-4.143-3.358-7.499-7.499-7.499H145.725
	c-4.142,0-7.499,3.357-7.499,7.499C138.226,198.709,141.584,202.066,145.725,202.066z"/>
<path d="M486.577,146.811l-42.953-29.246v-11.025c0-26.767-21.777-48.544-48.544-48.544h-38.946L283.464,8.52
	c-16.684-11.36-38.245-11.36-54.93,0l-72.606,49.434l0.029,0.043h-39.039c-26.767,0-48.543,21.777-48.543,48.543v11.024
	l-42.953,29.245C13.786,154.731,6.84,167.865,6.84,181.941v298.196c0,10.384,4.188,31.861,31.861,31.861h434.596
	c17.569,0,31.861-14.293,31.861-31.861V181.941C505.159,167.865,498.211,154.732,486.577,146.811z M490.16,181.941v298.196
	c0,3.318-0.977,6.405-2.638,9.017L309.367,284.09l179.948-108.911C489.868,177.365,490.16,179.632,490.16,181.941z M236.975,20.916
	c11.558-7.866,26.493-7.866,38.048,0l54.463,37.081H182.514L236.975,20.916z M116.919,72.995h278.16
	c18.497,0,33.545,15.048,33.545,33.545v56.75c0,4.143,3.358,7.499,7.499,7.499c4.142,0,7.499-3.357,7.499-7.499v-27.58
	c0,0,37.048,25.401,38.172,26.489L295.923,274.696c-24.625,14.869-55.222,14.871-79.809,0.023L83.373,193.456v-86.914
	C83.373,88.044,98.422,72.995,116.919,72.995z M68.375,135.709v48.564L31.04,161.416C31.927,160.628,68.375,135.709,68.375,135.709z
	 M37.807,496.956l26.595-30.538c2.72-3.124,2.394-7.86-0.73-10.581c-3.123-2.72-7.86-2.392-10.581,0.73l-28.519,32.746
	c-1.723-2.644-2.735-5.792-2.735-9.177V181.941c0-2.7,0.404-5.343,1.156-7.864l180.1,110.257L75.547,430.784
	c-2.72,3.124-2.394,7.86,0.73,10.581c1.421,1.237,6.321,3.264,10.581-0.73l129.55-148.752c12.541,5.977,26.063,8.97,39.59,8.97
	c13.696,0,27.392-3.076,40.068-9.205l178.356,205.297C474.048,496.969,38.105,496.972,37.807,496.956z"/>
<g>
</g>
<g>
</g>
<g>
</g>
<g>
</g>
<g>
</g>
<g>
</g>
<g>
</g>
<g>
</g>
<g>
</g>
<g>
</g>
<g>
</g>
<g>
</g>
<g>
</g>
<g>
</g>
<g>
</g>
</svg>
