<svg width="40" height="40" viewBox="0 0 40 40" fill="none" xmlns="http://www.w3.org/2000/svg">
<path d="M6.26062 29.8956C8.60984 5.48344 9.7657 2.53906 15.8594 2.77344C15.8594 2.77344 17.1094 0.585938 20.0001 0.585938C22.8907 0.585938 24.1407 2.77344 24.1407 2.77344C30.2344 2.53906 31.3902 5.48344 33.7395 29.8956C33.7395 29.8956 29.4923 39.4141 20.0391 39.4141C10.586 39.4141 6.26062 29.8956 6.26062 29.8956Z" fill="#E9EDF1"/>
<path d="M0.625122 39.414C3.43762 15.9766 5.89067 3.47656 15.5625 5.9375H24.4376C34.1096 3.47656 36.5625 15.9766 39.375 39.414H0.625122Z" fill="#E9EDF1"/>
<path d="M6.26062 29.8956C7.48406 17.1818 8.38398 10.2912 9.82617 6.63938C11.4033 5.60906 13.2822 5.35727 15.5625 5.9375H24.4376C26.7179 5.35727 28.5968 5.60906 30.1739 6.63938C31.6161 10.2912 32.5159 17.1818 33.7394 29.8956C33.7394 29.8956 29.4922 39.4141 20.0391 39.4141C10.5859 39.4141 6.26062 29.8956 6.26062 29.8956Z" fill="#C8D2DC"/>
<path d="M8.14539 39.4141C8.14539 33.3984 9.51843 31.8359 13.518 30.1953C14.7139 29.7048 15.3034 29.1487 15.8032 28.1968C16.1605 27.5163 23.8398 27.5163 24.197 28.1968C24.6969 29.1487 25.6226 29.7048 27.1876 30.1953C32.4219 31.8359 34.2188 33.3984 34.2188 39.4141H8.14539Z" fill="#FFCDBE"/>
<path d="M12.8126 30.1953C15.4964 29.3541 16.3001 28.3203 16.3001 25.4279C16.3001 28.3203 16.2584 30.4297 13.9845 32.0313C11.2592 33.9507 10.4689 35.4688 10.4689 39.4141H5.78137C5.78137 33.3984 7.57825 31.8359 12.8126 30.1953Z" fill="#EBAE9D"/>
<path d="M24.198 28.1963C22.9774 29.0807 21.5396 29.5914 20.0001 29.5914C18.4607 29.5914 17.0229 29.0807 15.8022 28.1963C16.1597 27.5159 16.3001 26.6338 16.3001 25.4279H23.7001C23.7001 26.6338 23.8406 27.5158 24.198 28.1963Z" fill="#EBAE9D"/>
<path d="M10.6251 39.4141C10.6251 39.4141 10.6251 38.8498 10.6251 38.5547C10.6251 36.0953 12.6189 34.1016 15.0782 34.1016C16.8404 34.1016 18.9471 35.4995 20.0001 36.25C21.0532 35.4995 23.1599 34.1016 24.922 34.1016C27.3814 34.1016 29.3751 36.0953 29.3751 38.5547V39.4141" fill="#E9EDF1"/>
<path d="M19.0565 35.8203C19.4491 35.8203 19.7951 36.0188 20.0001 36.3209C20.2051 36.0188 20.5512 35.8203 20.9438 35.8203C21.5732 35.8203 22.0834 36.3305 22.0834 36.9599C22.0834 37.9655 21.3405 38.3252 20.0001 39.4141C18.6598 38.3252 17.9169 37.9655 17.9169 36.9599C17.9169 36.3305 18.4271 35.8203 19.0565 35.8203Z" fill="#8AAADC"/>
<path d="M11.9979 15.3906C11.9979 14.8512 11.5607 14.4141 11.0214 14.4141C10.482 14.4141 10.0448 14.8512 10.0448 15.3906C10.0448 15.93 10.0448 16.2105 10.0448 17.091C10.0448 17.9715 10.4298 18.6852 11.9979 18.6852C13.566 18.6852 11.9979 15.3906 11.9979 15.3906Z" fill="#EBAE9D"/>
<path d="M28.0024 15.3906C28.0024 14.8512 28.4395 14.4141 28.9789 14.4141C29.5183 14.4141 29.9555 14.8512 29.9555 15.3906C29.9555 15.93 29.9555 16.2105 29.9555 17.091C29.9555 17.9715 29.5705 18.6852 28.0024 18.6852C26.4342 18.6852 28.0024 15.3906 28.0024 15.3906Z" fill="#EBAE9D"/>
<path d="M13.5548 13.3594C13.5548 8.9368 15.5775 5.35156 20.0001 5.35156C24.4227 5.35156 28.0079 8.9368 28.0079 13.3594V17.0607C28.0079 22.2554 24.4227 26.4664 20.0001 26.4664C15.5775 26.4664 13.5548 22.2553 13.5548 17.0607C13.5548 16.0493 13.5548 14.2205 13.5548 13.3594Z" fill="#FFCDBE"/>
<path d="M20.0001 4.57031C17.3034 4.57031 15.1173 8.15555 15.1173 12.5781V17.0607C15.1173 22.2554 17.3034 26.4664 20.0001 26.4664C15.5775 26.4664 11.9923 22.2553 11.9923 17.0607C11.9923 16.0493 11.9923 13.4392 11.9923 12.5781C11.9923 8.15555 15.5775 4.57031 20.0001 4.57031Z" fill="#EBAE9D"/>
<path d="M25.5079 22.1875C26.4356 22.1875 27.1876 21.4355 27.1876 20.5078C27.1876 19.5801 26.4356 18.8281 25.5079 18.8281C24.5803 18.8281 23.8282 19.5801 23.8282 20.5078C23.8282 21.4355 24.5803 22.1875 25.5079 22.1875Z" fill="#E6989E"/>
<path d="M14.4923 22.1875C15.42 22.1875 16.172 21.4355 16.172 20.5078C16.172 19.5801 15.42 18.8281 14.4923 18.8281C13.5646 18.8281 12.8126 19.5801 12.8126 20.5078C12.8126 21.4355 13.5646 22.1875 14.4923 22.1875Z" fill="#E6989E"/>
<path d="M25.8359 11.6623C24.5715 10.6039 23.0522 9.57031 23.0522 7.65312C23.0522 11.4781 19.3976 12.5934 16.5801 13.5952C13.7626 14.5969 11.9979 15.0777 11.9979 17.3959C11.9947 17.2846 11.9923 17.173 11.9923 17.0607C11.9923 16.0493 11.9923 13.4392 11.9923 12.5781C11.9923 8.15555 15.5775 4.57031 20.0001 4.57031C24.4227 4.57031 28.0079 8.15555 28.0079 12.5781V17.0607C28.0079 14.7423 27.1003 12.7206 25.8359 11.6623Z" fill="#BE694E"/>
<path d="M20.0001 4.57031C17.3034 4.57031 15.1173 8.15555 15.1173 12.5781V14.1169C13.1655 14.8403 11.9979 15.5103 11.9979 17.3959V17.3958C11.9947 17.2845 11.9923 17.1729 11.9923 17.0606C11.9923 16.0492 11.9923 13.4391 11.9923 12.578C11.9923 8.15555 15.5775 4.57031 20.0001 4.57031Z" fill="#934C35"/>
<path d="M0.555239 39.9958C0.233912 39.9572 0.00477153 39.6655 0.0432871 39.3442C1.1361 30.2373 2.1443 23.0466 3.5125 17.554C5.0039 11.5669 6.85952 7.97444 9.35037 6.2528C10.7526 2.84843 12.7235 2.12351 15.5551 2.17843C16.0496 1.51312 17.4541 0 20 0C22.5458 0 23.9504 1.51312 24.4449 2.17843C27.2091 2.12617 29.2161 2.83054 30.6126 6.16225C30.6252 6.19241 30.6377 6.22257 30.6503 6.25319C33.1409 7.97498 34.9963 11.5672 36.4875 17.5539C37.8557 23.0465 38.8639 30.2372 39.9567 39.3441C39.9952 39.6655 39.7661 39.9572 39.4448 39.9957C39.1238 40.0341 38.8318 39.805 38.7932 39.4837C37.7056 30.4205 36.7039 23.2709 35.3504 17.8372C34.2472 13.4085 32.9701 10.382 31.402 8.52639C32.2724 11.749 33.0002 16.7755 33.8717 25.2856C33.9047 25.6075 33.6705 25.8952 33.3485 25.9282C33.027 25.961 32.7389 25.7269 32.7059 25.4049C31.8056 16.6134 30.9789 10.4211 29.6971 7.03085C28.5781 6.34991 27.3028 6.09803 25.8306 6.27022C27.529 7.84131 28.5937 10.0876 28.5937 12.5781V13.8761C28.7169 13.8447 28.8459 13.8281 28.9787 13.8281C29.8402 13.8281 30.5412 14.529 30.5412 15.3906V17.091C30.5412 17.9631 30.2025 18.982 28.7044 19.2198C28.8345 19.4916 29.0717 19.6697 29.3752 19.8979C29.9027 20.2939 30.6249 20.8364 30.6249 22.0703C30.6249 23.3041 29.9027 23.8466 29.3752 24.2428C28.9046 24.5963 28.5937 24.8299 28.5937 25.4782C28.5937 25.8018 28.3313 26.0642 28.0078 26.0642C27.6842 26.0642 27.4218 25.8018 27.4218 25.4782C27.4218 24.2444 28.1441 23.7019 28.6715 23.3057C29.1421 22.9522 29.4531 22.7186 29.4531 22.0703C29.4531 21.4219 29.1421 21.1883 28.6715 20.8347C28.4948 20.702 28.2962 20.5529 28.1103 20.3668C27.4245 22.6344 26.0541 24.53 24.2885 25.7169C24.3343 28.0978 24.9835 28.8903 27.3627 29.6361C29.9238 30.4388 31.8829 31.2829 33.1193 32.7927C34.3006 34.2354 34.8046 36.2156 34.8046 39.414C34.8046 39.7376 34.5423 39.9999 34.2187 39.9999C33.8951 39.9999 33.6327 39.7376 33.6327 39.414C33.6327 33.7376 32.0608 32.3367 27.0122 30.7544C24.3746 29.9277 23.3378 28.8061 23.1474 26.3585C22.1723 26.8062 21.1103 27.0524 20 27.0524C18.8896 27.0524 17.8277 26.8062 16.8525 26.3585C16.6621 28.8061 15.6253 29.9277 12.9877 30.7544C11.7557 31.1406 10.8362 31.4864 10.0941 31.8427C9.8024 31.9826 9.4524 31.8598 9.31233 31.5681C9.17225 31.2763 9.29522 30.9263 9.58694 30.7863C10.3809 30.4051 11.3501 30.0396 12.6372 29.6362C15.0165 28.8905 15.6656 28.0979 15.7114 25.717C13.9458 24.5301 12.5755 22.6345 11.8897 20.3668C11.7038 20.5529 11.5052 20.7021 11.3285 20.8348C10.8578 21.1883 10.5469 21.4219 10.5469 22.0703C10.5469 22.7186 10.8578 22.9522 11.3284 23.3058C11.8558 23.7019 12.5781 24.2445 12.5781 25.4782C12.5781 25.8018 12.3158 26.0642 11.9922 26.0642C11.6686 26.0642 11.4062 25.8018 11.4062 25.4782C11.4062 24.8299 11.0953 24.5963 10.6247 24.2427C10.0973 23.8466 9.37498 23.3041 9.37498 22.0703C9.37498 20.8364 10.0972 20.2939 10.6247 19.8978C10.9283 19.6697 11.1654 19.4915 11.2955 19.2197C9.7974 18.9819 9.45873 17.963 9.45873 17.0909V15.3906C9.45873 14.529 10.1597 13.8281 11.0212 13.8281C11.154 13.8281 11.283 13.8447 11.4062 13.8761V12.5781C11.4062 11.5639 11.5814 10.5708 11.9267 9.62639C12.0379 9.32248 12.3744 9.16631 12.6783 9.27733C12.9822 9.3885 13.1384 9.72498 13.0273 10.0289C12.7293 10.8439 12.5781 11.7016 12.5781 12.5781V14.7593C12.6338 14.7133 12.6915 14.6683 12.7514 14.6241C13.2129 14.2837 13.7691 14.0152 14.4217 13.7555C14.631 13.6487 14.8619 13.5624 15.1058 13.4968C15.3616 13.4038 15.6297 13.3093 15.9104 13.2104C16.0646 13.156 16.2224 13.1004 16.3836 13.0431C16.5065 12.9993 16.631 12.9555 16.7566 12.9111C19.4328 11.9672 22.466 10.8973 22.466 7.65311C22.466 7.32952 22.7283 7.06717 23.0519 7.06717C23.3755 7.06717 23.6378 7.32952 23.6378 7.65311C23.6378 9.10318 24.7006 9.97342 25.826 10.8947C25.956 11.0012 26.0851 11.1069 26.2118 11.2129C26.6739 11.5997 27.081 12.0865 27.4218 12.6461V12.5781C27.4218 10.0603 26.1616 7.83131 24.2387 6.48874C24.1488 6.45616 24.0675 6.40194 24.0029 6.33069C22.8473 5.58757 21.4732 5.15624 20 5.15624C18.5644 5.15624 17.1845 5.56725 16.0055 6.32108C15.9366 6.40061 15.8474 6.46006 15.7482 6.49335C15.2087 6.87085 14.7161 7.32288 14.2851 7.84233C14.0783 8.09139 13.709 8.12576 13.46 7.91912C13.2109 7.71248 13.1765 7.34311 13.3832 7.09405C13.6268 6.80038 13.8877 6.52514 14.1635 6.2696C12.6937 6.09905 11.42 6.351 10.3024 7.03116C10.2705 7.11538 10.2389 7.20147 10.2074 7.28944C8.84709 11.0924 7.97577 18.1881 6.84374 29.9517C6.81272 30.2739 6.52632 30.5103 6.20437 30.4788C5.88226 30.4479 5.64624 30.1616 5.67726 29.8395C6.67538 19.4675 7.47671 12.6836 8.59983 8.52405C7.03077 10.3794 5.7532 13.4065 4.64953 17.8372C3.29609 23.271 2.29438 30.4205 1.2068 39.4838C1.1711 39.7815 0.918207 40 0.625786 40C0.602504 40 0.578911 39.9986 0.555239 39.9958ZM25.4597 12.1115C25.3363 12.0083 25.2103 11.9051 25.0837 11.8015C24.4119 11.2514 23.691 10.6612 23.1763 9.91053C22.8059 10.7206 22.2108 11.425 21.3841 12.0368C20.4081 12.7592 19.2282 13.2586 18.0919 13.6776C18.1629 13.7087 18.232 13.742 18.2987 13.7775C18.5845 13.9293 18.6932 14.284 18.5414 14.5698C18.3896 14.8557 18.0347 14.9643 17.749 14.8125C17.1502 14.4946 16.2279 14.4257 15.4889 14.606C13.4349 15.3599 12.5837 15.8795 12.5837 17.396C12.5837 17.3987 12.5837 17.4014 12.5836 17.4041C12.7358 22.1089 16.0042 25.8804 20 25.8804C24.0924 25.8804 27.4218 21.9239 27.4218 17.0607C27.4218 15.0211 26.67 13.1247 25.4597 12.1115ZM11.4062 15.3244C11.3747 15.1404 11.214 15 11.0212 15C10.8058 15 10.6306 15.1752 10.6306 15.3906V17.091C10.6306 17.5234 10.6998 17.9198 11.4062 18.0525V17.0607V15.3244ZM28.5937 15.3244V18.0524C29.3001 17.9198 29.3693 17.5234 29.3693 17.0909V15.3906C29.3693 15.1752 29.1941 15 28.9787 15C28.7859 15 28.6252 15.1404 28.5937 15.3244ZM15.4247 5.3014C16.7788 4.44866 18.3578 3.98437 20 3.98437C21.678 3.98437 23.2451 4.46773 24.5696 5.30265C26.1803 4.93257 27.6141 4.95671 28.9045 5.37976C27.7857 3.59343 26.346 3.2746 24.1631 3.35898C23.9464 3.36671 23.7424 3.25327 23.6333 3.06671C23.5881 2.98929 22.4961 1.17187 20 1.17187C17.5038 1.17187 16.4118 2.98929 16.3681 3.06413C16.2598 3.25367 16.0546 3.36671 15.8368 3.3589C13.6397 3.27445 12.207 3.59515 11.0929 5.38054C11.7801 5.15499 12.5079 5.04249 13.2815 5.04249C13.9597 5.04257 14.673 5.12897 15.4247 5.3014ZM19.6305 39.8687C19.3968 39.6789 19.1765 39.5077 18.9822 39.3566C18.0235 38.6114 17.3307 38.073 17.3307 36.9598C17.3307 36.4282 17.5723 35.952 17.9514 35.6352C16.8172 35.0054 15.8549 34.6874 15.0781 34.6874C12.9458 34.6874 11.2109 36.4223 11.2109 38.5546V39.414C11.2109 39.7376 10.9486 39.9999 10.625 39.9999C10.3014 39.9999 10.039 39.7376 10.039 39.414V38.5546C10.039 35.7761 12.2996 33.5156 15.0781 33.5156C16.3712 33.5156 17.9269 34.1372 19.8209 35.4128C19.8825 35.4433 19.9424 35.4774 20 35.5151C20.0576 35.4774 20.1174 35.4433 20.1791 35.4128C22.0731 34.1372 23.6288 33.5156 24.9218 33.5156C27.7003 33.5156 29.9609 35.7761 29.9609 38.5546V39.414C29.9609 39.7376 29.6985 39.9999 29.3749 39.9999C29.0513 39.9999 28.789 39.7376 28.789 39.414V38.5546C28.789 36.4223 27.0542 34.6874 24.9218 34.6874C24.145 34.6874 23.1828 35.0054 22.0484 35.6353C22.4275 35.9521 22.6691 36.4283 22.6691 36.9598C22.6691 38.073 21.9764 38.6115 21.0176 39.3567C20.8233 39.5077 20.603 39.679 20.3693 39.8688C20.2618 39.9562 20.1309 39.9999 20 39.9999C19.8691 39.9999 19.7382 39.9562 19.6305 39.8687ZM20.7512 36.4407C20.6771 36.4912 20.6024 36.5426 20.5271 36.5952C20.512 36.6124 20.4978 36.6306 20.4849 36.6498C20.3758 36.8106 20.1943 36.9067 20 36.9067C19.8058 36.9067 19.6243 36.8105 19.5152 36.6498C19.5021 36.6306 19.488 36.6124 19.473 36.5952C19.3977 36.5426 19.323 36.4911 19.2489 36.4407C19.1882 36.4181 19.1231 36.4062 19.0564 36.4062C18.7511 36.4062 18.5028 36.6545 18.5028 36.9598C18.5028 37.4752 18.7908 37.7236 19.7015 38.4314C19.7954 38.5044 19.8953 38.582 20.0001 38.6644C20.105 38.582 20.2048 38.5044 20.2987 38.4314C21.2093 37.7236 21.4975 37.4751 21.4975 36.9598C21.4975 36.6545 21.2491 36.4062 20.9438 36.4062C20.877 36.4062 20.812 36.4181 20.7512 36.4407ZM5.19531 39.414C5.19531 36.0013 5.78609 33.9228 7.17069 32.464C7.3935 32.2293 7.76428 32.2195 7.99905 32.4424C8.23374 32.6652 8.24342 33.036 8.02069 33.2707C6.84624 34.5081 6.36718 36.2879 6.36718 39.414C6.36718 39.7376 6.10484 39.9999 5.78124 39.9999C5.45765 39.9999 5.19531 39.7376 5.19531 39.414ZM33.1562 29.9517C33.0962 29.3284 33.037 28.719 32.9784 28.1234C32.9468 27.8013 33.1822 27.5146 33.5042 27.483C33.8266 27.4505 34.113 27.6867 34.1446 28.0088C34.2032 28.6052 34.2625 29.2153 34.3226 29.8395C34.3536 30.1616 34.1176 30.4479 33.7955 30.4788C33.7763 30.4807 33.7574 30.4816 33.7386 30.4816C33.4404 30.4816 33.1853 30.2547 33.1562 29.9517ZM17.4539 22.688C17.2388 22.4462 17.2604 22.0758 17.5023 21.8608C17.7441 21.6457 18.1145 21.6675 18.3295 21.9093C18.78 22.4157 19.3732 22.6946 20 22.6946C20.6268 22.6946 21.2201 22.4157 21.6706 21.9093C21.8857 21.6675 22.2559 21.6457 22.4978 21.8608C22.7396 22.0758 22.7612 22.4462 22.5462 22.688C21.8703 23.4479 20.9661 23.8664 20 23.8664C19.0339 23.8664 18.1297 23.4479 17.4539 22.688ZM14.9763 17.6989C14.7475 17.4701 14.7475 17.0991 14.9763 16.8704C15.2051 16.6415 15.5761 16.6415 15.8049 16.8704C16.0328 17.0982 16.3357 17.2237 16.6581 17.2237C16.9804 17.2237 17.2833 17.0982 17.5112 16.8704C17.74 16.6415 18.1111 16.6416 18.3398 16.8703C18.5686 17.0991 18.5686 17.4701 18.3398 17.6989C17.8906 18.1482 17.2933 18.3956 16.658 18.3956C16.0229 18.3956 15.4255 18.1482 14.9763 17.6989ZM21.66 17.6989C21.4312 17.4701 21.4312 17.0991 21.66 16.8703C21.8889 16.6415 22.2599 16.6415 22.4887 16.8704C22.7166 17.0982 23.0196 17.2237 23.3418 17.2237C23.6641 17.2237 23.9671 17.0982 24.195 16.8704C24.4239 16.6415 24.7949 16.6415 25.0236 16.8704C25.2524 17.0992 25.2524 17.4702 25.0236 17.6989C24.5744 18.1482 23.9771 18.3956 23.3418 18.3956C22.7066 18.3956 22.1092 18.1482 21.66 17.6989ZM25.0709 14.8125C24.3066 14.4066 23.0152 14.4066 22.2509 14.8125C21.965 14.9643 21.6103 14.8557 21.4585 14.5698C21.3068 14.284 21.4154 13.9293 21.7013 13.7775C22.8001 13.194 24.5217 13.1939 25.6205 13.7775C25.9063 13.9293 26.0149 14.284 25.8631 14.5698C25.7578 14.7681 25.5549 14.8811 25.3452 14.8811C25.2525 14.8811 25.1585 14.859 25.0709 14.8125Z" fill="black"/>
</svg>