<svg width="40" height="40" viewBox="0 0 40 40" fill="none" xmlns="http://www.w3.org/2000/svg">
<g clip-path="url(#clip0)">
<path d="M38.276 39.4113C38.276 35.8418 36.7977 30.1286 36.0294 29.2856C35.5005 28.7051 31.3038 27.9489 28.8198 27.2787C28.2574 27.127 27.7483 26.9411 27.2915 26.7383C25.211 25.8145 14.7891 25.8145 12.7086 26.7383C12.2518 26.9411 11.7427 27.127 11.1803 27.2787C8.69633 27.949 4.49955 28.7051 3.97065 29.2856C3.20238 30.1286 2.50684 35.8417 2.50684 39.4113H38.276Z" fill="#766D78"/>
<path d="M5.98891 39.4113H1.72412C1.72412 35.8418 3.20242 30.1286 3.97068 29.2856C3.97068 29.2856 3.85656 35.3019 5.98891 39.4113Z" fill="#544F56"/>
<path d="M15.7849 25.4489C15.7849 25.4489 15.6085 27.0439 15.6085 28.2963C15.6085 36.5152 20.0001 39.4113 20.0001 39.4113C20.0001 39.4113 24.3917 36.5152 24.3917 28.2963C24.3917 27.0439 24.2154 25.4489 24.2154 25.4489H15.7849Z" fill="#C8D2DC"/>
<path d="M24.2153 25.4488C24.2153 30.9185 20.9393 30.9185 20.9393 30.9185H19.0607C19.0607 30.9185 15.7848 30.9185 15.7848 25.4488C15.7848 19.9791 15.7848 14.6346 15.7848 14.6346H24.2153V25.4488Z" fill="#F7F9FA"/>
<path d="M20.0001 26.7308C20.0001 26.7308 22.8188 28.3746 20.9093 30.9577C21.7276 33.1494 22.2545 35.8469 22.2545 35.847C22.2545 35.847 21.431 39.4113 20.0001 39.4113C18.5693 39.4113 17.7457 35.847 17.7457 35.847C17.7457 35.847 18.2726 33.1494 19.0909 30.9577C17.1814 28.3746 20.0001 26.7308 20.0001 26.7308Z" fill="#8AAADC"/>
<path d="M23.819 39.4113C23.819 39.4113 28.5471 35.4193 28.5471 32.3666C28.5471 30.5091 27.2918 26.7381 27.2918 26.7381V26.7376C25.2118 25.8138 24.2154 24.5391 24.2154 24.5391V26.7308C24.2154 34.9496 20.0001 39.4112 20.0001 39.4112C20.0001 39.4112 15.7848 34.9496 15.7848 26.7308C15.7848 26.1301 15.7848 25.271 15.7848 24.5391C15.7848 24.5391 14.7885 25.8138 12.7084 26.7376V26.738C12.7084 26.738 11.4531 30.509 11.4531 32.3665C11.4531 35.4192 16.1812 39.4112 16.1812 39.4112H23.819V39.4113Z" fill="#544F56"/>
<path d="M28.0232 12.2109C28.0232 11.6704 28.4612 11.2324 29.0016 11.2324C29.542 11.2324 29.98 11.6704 29.98 12.2109C29.98 12.7513 29.98 13.8151 29.98 14.6972C29.98 15.5794 29.2649 16.2945 28.3828 16.2945C28.2504 16.2945 28.0689 16.2784 27.927 16.248H12.0731C11.9313 16.2784 11.7497 16.2945 11.6173 16.2945C10.7351 16.2945 10.02 15.5794 10.02 14.6972C10.02 13.8151 10.02 12.7513 10.02 12.2109C10.02 11.6704 10.458 11.2324 10.9985 11.2324C11.5389 11.2324 11.9769 11.6704 11.9769 12.2109H28.0232Z" fill="#EBAE9D"/>
<path d="M13.5425 6.54808C13.5425 3.64495 15.5691 1.36982 20.0001 1.36982C22.1441 1.36982 24.0916 1.30289 25.5309 2.37072C27.0663 3.50985 28.0233 5.83234 28.0233 7.33083V14.7451C28.0233 19.9497 24.4312 24.8733 20.0001 24.8733C15.5691 24.8733 13.5425 19.9496 13.5425 14.7451C13.5425 13.7318 13.5425 7.1133 13.5425 6.54808Z" fill="#FFCDBE"/>
<path d="M20.0001 0.587067C18.7689 0.587067 15.1079 3.99601 15.1079 6.54808V14.7451C15.1079 19.9497 15.569 24.8733 20.0001 24.8733C15.569 24.8733 11.9769 19.9496 11.9769 14.7451C11.9769 13.7317 11.9769 7.89605 11.9769 7.33082C11.9769 4.42769 15.569 0.587067 20.0001 0.587067Z" fill="#EBAE9D"/>
<path d="M25.5185 19.0207C26.4479 19.0207 27.2014 18.2673 27.2014 17.3378C27.2014 16.4084 26.4479 15.6549 25.5185 15.6549C24.589 15.6549 23.8356 16.4084 23.8356 17.3378C23.8356 18.2673 24.589 19.0207 25.5185 19.0207Z" fill="#E6989E"/>
<path d="M14.4817 19.0207C15.4112 19.0207 16.1646 18.2673 16.1646 17.3378C16.1646 16.4084 15.4112 15.6549 14.4817 15.6549C13.5523 15.6549 12.7988 16.4084 12.7988 17.3378C12.7988 18.2673 13.5523 19.0207 14.4817 19.0207Z" fill="#E6989E"/>
<path d="M20 0.587067C24.4311 0.587067 28.0232 3.64494 28.0232 6.54807V12.25C28.0232 9.98535 26.7984 8.48968 25.9098 7.78834C25.5736 7.52299 25.5184 7.2664 25.5184 6.92732C25.5184 6.37939 25.5184 2.38738 25.5184 2.38738C25.5184 7.39696 20.2565 6.45524 18.1145 5.8656C17.0697 5.57802 16.1455 5.35439 15.335 5.2639C13.8435 5.09725 15.569 0.587067 20 0.587067Z" fill="#BE694E"/>
<path d="M20.0001 0.587067C17.8867 1.48723 16.0662 3.15815 15.3351 5.26445C15.035 5.23095 14.7509 5.21607 14.4817 5.22257V6.92739C14.4817 7.26648 14.4265 7.52306 14.0903 7.78841C13.2018 8.48976 11.9769 9.98543 11.9769 12.2501C11.9769 9.95216 11.9769 6.92254 11.9769 6.54815C11.9769 3.64494 15.569 0.587067 20.0001 0.587067Z" fill="#934C35"/>
<path d="M20.3592 31.163C20.2898 30.977 20.3191 30.7684 20.4371 30.6087C20.89 29.996 21.0634 29.4071 20.9526 28.8583C20.8213 28.2082 20.3259 27.7143 20 27.4511C19.6736 27.7148 19.1786 28.2086 19.0473 28.8583C18.9365 29.4072 19.1099 29.9961 19.5628 30.6088C19.6808 30.7684 19.7102 30.977 19.6407 31.1631C18.9712 32.9562 18.4939 35.13 18.3599 35.7726C18.3721 35.7978 18.3844 35.823 18.3964 35.8478C18.9998 37.0836 19.6084 37.9725 19.9998 38.4869C20.3975 37.963 21.0205 37.049 21.6388 35.7665C21.5031 35.1167 21.0275 32.9526 20.3592 31.163ZM17.8987 28.6149C18.2085 27.1112 19.6433 26.2592 19.7042 26.2237C19.8871 26.1171 20.113 26.1171 20.2957 26.2236C20.3566 26.2592 21.7915 27.1111 22.1013 28.6149C22.2668 29.4184 22.0864 30.2334 21.5647 31.0416C21.9129 32.0194 22.2021 33.0574 22.4158 33.9082C23.0953 32.0114 23.6282 29.6071 23.6282 26.7307V24.545C23.6282 24.5413 23.6282 24.5375 23.6282 24.5337V24.4125C22.4991 25.0988 21.2672 25.4603 20 25.4603C18.7328 25.4603 17.5009 25.0988 16.3718 24.4125V24.5342V24.5447V26.7308C16.3718 29.654 16.9293 32.0755 17.5836 33.9106C17.7975 33.0593 18.0868 32.0204 18.4353 31.0417C17.9137 30.2335 17.7332 29.4184 17.8987 28.6149ZM25.546 8.24913C25.0044 7.82159 24.9313 7.34099 24.9313 6.92731V5.69973C24.8199 5.81025 24.7007 5.91404 24.5738 6.01079C22.6934 7.44361 19.622 6.88942 17.9586 6.43159C16.7978 6.11208 15.8488 5.89478 15.0686 5.83076V6.92731C15.0686 7.34107 14.9956 7.82167 14.4539 8.24913C14.0105 8.5991 12.5639 9.92178 12.5639 12.25V14.7451C12.5639 17.1413 13.3758 19.5677 14.7915 21.4022C16.2266 23.262 18.0764 24.2862 20 24.2862C21.9236 24.2862 23.7733 23.262 25.2084 21.4022C26.6241 19.5676 27.436 17.1412 27.436 14.7451V12.25C27.436 9.92178 25.9895 8.5991 25.546 8.24913ZM10.9984 11.8195C10.7826 11.8195 10.607 11.995 10.607 12.2108V14.6972C10.607 15.1894 10.9608 15.6006 11.4274 15.6896C11.4024 15.375 11.3897 15.0598 11.3897 14.7451V12.2108C11.3897 11.995 11.2142 11.8195 10.9984 11.8195ZM28.6102 12.2108V14.7451C28.6102 15.0597 28.5975 15.375 28.5724 15.6895C29.0391 15.6005 29.3929 15.1894 29.3929 14.6972V12.2108C29.3929 11.995 29.2173 11.8195 29.0015 11.8195C28.7857 11.8195 28.6102 11.995 28.6102 12.2108ZM12.5639 6.73146V8.56505C13.02 7.92656 13.4894 7.51468 13.7265 7.32745C13.8725 7.21223 13.8945 7.15986 13.8945 6.92731V5.87936C13.34 5.99584 12.9077 6.26659 12.5639 6.73146ZM26.1054 6.92731C26.1054 7.15986 26.1274 7.21223 26.2734 7.32752C26.5106 7.51468 26.9799 7.92664 27.436 8.56513V6.54807C27.436 5.58443 26.9475 4.56005 26.1054 3.66693V6.92731ZM37.6889 39.4113C37.6889 37.8442 37.3902 35.6752 36.8692 33.4604C36.3258 31.1496 35.8085 29.9302 35.6027 29.6892C35.5586 29.6553 35.3394 29.5162 34.457 29.2609C34.1455 29.1708 33.966 28.8453 34.0562 28.5338C34.1463 28.2224 34.4718 28.0431 34.7833 28.1331C35.7384 28.4094 36.225 28.6288 36.4632 28.8902C37.3891 29.9061 38.8629 35.8304 38.8629 39.4113C38.8629 39.7355 38.6 39.9983 38.2758 39.9983C37.9516 39.9983 37.6889 39.7355 37.6889 39.4113ZM16.9047 20.1783C16.6892 19.936 16.711 19.565 16.9533 19.3495C17.1956 19.134 17.5665 19.1558 17.7821 19.398C18.3787 20.0688 19.1665 20.4384 20 20.4384C20.8336 20.4384 21.6212 20.0689 22.2179 19.398C22.4334 19.1558 22.8044 19.1341 23.0466 19.3495C23.2889 19.5649 23.3106 19.936 23.0952 20.1783C22.2727 21.1031 21.1734 21.6124 20 21.6124C20 21.6124 20 21.6124 20 21.6124C18.8266 21.6124 17.7272 21.1031 16.9047 20.1783ZM14.9667 14.5236C14.7374 14.2944 14.7374 13.9226 14.9667 13.6934C15.1959 13.4642 15.5676 13.4641 15.7969 13.6934C16.0252 13.9218 16.3288 14.0475 16.6517 14.0475C16.9746 14.0475 17.2782 13.9217 17.5066 13.6934C17.7357 13.4642 18.1074 13.4641 18.3368 13.6934C18.566 13.9227 18.566 14.2944 18.3367 14.5236C17.8866 14.9738 17.2882 15.2216 16.6517 15.2216C16.0151 15.2216 15.4167 14.9738 14.9667 14.5236ZM21.6632 14.5236C21.4339 14.2944 21.4339 13.9226 21.6632 13.6934C21.8925 13.4641 22.2642 13.4642 22.4935 13.6934C22.7218 13.9218 23.0253 14.0475 23.3482 14.0475C23.6711 14.0475 23.9747 13.9217 24.2031 13.6934C24.4323 13.4642 24.8041 13.4642 25.0332 13.6934C25.2625 13.9227 25.2625 14.2944 25.0332 14.5236C24.5832 14.9738 23.9847 15.2216 23.3482 15.2216C22.7117 15.2216 22.1133 14.9738 21.6632 14.5236ZM25.0806 12.1796C24.3148 11.7729 23.021 11.7729 22.2552 12.1796C21.9687 12.3317 21.6134 12.2228 21.4613 11.9364C21.3092 11.6501 21.4181 11.2946 21.7045 11.1426C22.8055 10.5579 24.5303 10.5578 25.6313 11.1426C25.9176 11.2946 26.0265 11.65 25.8744 11.9364C25.7689 12.1351 25.5656 12.2483 25.3554 12.2483C25.2626 12.2483 25.1683 12.2262 25.0806 12.1796ZM14.1256 11.9364C13.9736 11.6501 14.0824 11.2946 14.3687 11.1426C15.4696 10.5578 17.1946 10.5578 18.2954 11.1426C18.5818 11.2946 18.6906 11.65 18.5386 11.9364C18.3866 12.2227 18.0313 12.3316 17.7447 12.1796C16.9789 11.773 15.6851 11.773 14.9193 12.1796C14.8316 12.2262 14.7374 12.2483 14.6445 12.2483C14.4344 12.2483 14.231 12.135 14.1256 11.9364ZM16.1809 39.9983C16.0471 39.9983 15.9126 39.9529 15.8025 39.8598C15.7108 39.7825 13.542 37.94 12.112 35.757C11.9343 35.4857 12.0101 35.1218 12.2814 34.9441C12.5525 34.7665 12.9163 34.8423 13.0942 35.1135C14.4313 37.1548 16.5388 38.9448 16.5599 38.9627C16.8077 39.1718 16.8389 39.5422 16.6298 39.79C16.5136 39.9275 16.3477 39.9983 16.1809 39.9983ZM33.431 36.2046C33.431 37.5724 32.5997 38.2185 31.3412 39.1967C31.0865 39.3948 30.7977 39.6192 30.4907 39.8686C30.3829 39.9562 30.2517 40 30.1206 40C29.9894 40 29.8582 39.9562 29.7504 39.8686C29.4435 39.6192 29.1548 39.3948 28.9 39.1968C27.9313 38.4438 27.2155 37.8876 26.9374 37.0475L26.938 37.0439C25.6699 38.6061 24.304 39.7701 24.1977 39.8598C23.95 40.0689 23.5798 40.0377 23.3706 39.7901C23.1615 39.5424 23.1926 39.1721 23.4402 38.9628C24.6974 37.9001 27.9601 34.6436 27.9601 32.3666C27.9601 30.8863 27.0829 28.0139 26.8129 27.1651C25.9622 26.7624 25.2944 26.3089 24.8025 25.914V26.7308C24.8025 31.0893 23.6236 34.4012 22.6346 36.4122C21.554 38.6093 20.4724 39.7663 20.4269 39.8145C20.316 39.9319 20.1617 39.9983 20.0002 39.9983C19.8387 39.9983 19.6843 39.9318 19.5734 39.8145C19.528 39.7663 18.4463 38.6094 17.3658 36.4122C16.3768 34.4012 15.1979 31.0893 15.1979 26.7308V25.9139C14.706 26.3089 14.0382 26.7624 13.1875 27.1651C12.9493 27.9138 12.2385 30.2378 12.0737 31.8046C12.0397 32.127 11.7521 32.3607 11.4284 32.327C11.106 32.293 10.8721 32.0042 10.906 31.6817C11.0376 30.4315 11.4725 28.7965 11.7918 27.7113C11.6429 27.7583 11.4901 27.8031 11.3333 27.8453C10.5389 28.0597 9.56218 28.2849 8.61764 28.5026C7.08416 28.8562 4.77052 29.3896 4.39762 29.6886C4.19207 29.9288 3.67452 31.1482 3.13082 33.4601C2.60998 35.6749 2.31121 37.8439 2.31121 39.411C2.31121 39.7353 2.04844 39.9981 1.72414 39.9981C1.39985 39.9981 1.13708 39.7353 1.13708 39.411C1.13708 35.8301 2.61092 29.9058 3.53667 28.8899C3.97619 28.4076 5.342 28.0529 8.35378 27.3585C9.28798 27.1431 10.2538 26.9204 11.0273 26.7117C13.4198 26.0662 14.7948 24.7524 15.1976 24.3185V23.5486C14.7244 23.1349 14.277 22.6572 13.862 22.1194C12.714 20.6317 11.9237 18.7961 11.5814 16.8811C10.3934 16.8618 9.43295 15.8895 9.43295 14.6971V12.2108C9.43295 11.3476 10.1352 10.6454 10.9984 10.6454C11.1335 10.6454 11.2647 10.6626 11.3898 10.6949V6.55652C11.3897 6.55018 11.3897 6.54392 11.3898 6.53766C11.3933 5.12973 12.1099 3.69214 13.4086 2.48851C13.6464 2.26809 14.0178 2.28218 14.2383 2.51997C14.4587 2.75777 14.4446 3.12919 14.2068 3.34961C13.6777 3.84 13.2629 4.38142 12.9825 4.93467C13.411 4.75338 13.8793 4.66431 14.381 4.6438C14.4366 4.63417 14.4962 4.63261 14.5524 4.63942C15.6627 4.62721 16.9243 4.92911 18.2702 5.29958C19.4409 5.62176 22.3291 6.24506 23.8622 5.07689C24.5275 4.56991 24.8767 3.77918 24.9254 2.66502C23.6252 1.77527 21.9104 1.17412 20 1.17412C18.7389 1.17412 17.4726 1.44425 16.3379 1.95522C16.0425 2.08829 15.6947 1.95679 15.5615 1.66107C15.4285 1.36542 15.5601 1.01781 15.8558 0.884738C17.1408 0.305897 18.5739 0 20 0C22.217 0 24.3597 0.715665 26.0333 2.01526C27.6709 3.28691 28.6102 4.93905 28.6102 6.54814V10.695C28.7354 10.6627 28.8665 10.6454 29.0016 10.6454C29.8648 10.6454 30.5671 11.3477 30.5671 12.2109V14.6973C30.5671 15.8898 29.6067 16.8622 28.4187 16.8813C28.0763 18.7963 27.2861 20.6319 26.138 22.1196C25.7229 22.6576 25.2757 23.135 24.8023 23.5488V24.3204C25.1114 24.6562 25.9995 25.5188 27.5083 26.1925C27.5226 26.1982 27.5367 26.2045 27.5506 26.2112C27.9757 26.3987 28.4495 26.5708 28.9727 26.7119C29.7466 26.9208 30.713 27.1435 31.6476 27.359L32.0952 27.4623C32.4111 27.5355 32.6079 27.8507 32.5349 28.1667C32.4617 28.4826 32.1464 28.6792 31.8305 28.6063L31.3838 28.5032C30.4388 28.2853 29.4616 28.0601 28.6668 27.8457C28.5101 27.8033 28.3573 27.7585 28.2083 27.7116C28.589 29.006 29.1341 31.0832 29.1341 32.3667C29.1341 32.9408 28.9893 33.5377 28.75 34.1328C28.7953 34.1299 28.8408 34.1279 28.8869 34.1279C29.3374 34.1279 29.7681 34.2735 30.1206 34.5339C30.473 34.2736 30.9037 34.1279 31.3542 34.1279C32.4994 34.1277 33.431 35.0594 33.431 36.2046ZM28.8868 35.3019C28.389 35.3019 27.984 35.7069 27.984 36.2046C27.984 36.9618 28.3772 37.3036 29.6204 38.2698C29.7755 38.3903 29.943 38.5206 30.1205 38.6609C30.2979 38.5206 30.4654 38.3903 30.6206 38.2697C31.8637 37.3036 32.2569 36.9618 32.2569 36.2047C32.2569 35.7069 31.8519 35.3019 31.3542 35.3019C31.0545 35.3019 30.7749 35.4504 30.6062 35.6989C30.497 35.8599 30.3151 35.9563 30.1205 35.9563C29.9259 35.9563 29.744 35.8599 29.6347 35.6989C29.4661 35.4503 29.1864 35.3019 28.8868 35.3019Z" fill="black"/>
</g>
<defs>
<clipPath id="clip0">
<rect width="40" height="40" fill="white"/>
</clipPath>
</defs>
</svg>