<svg width="40" height="40" viewBox="0 0 40 40" fill="none" xmlns="http://www.w3.org/2000/svg">
<path d="M3.33337 29.6667C3.33337 20.4619 10.7953 13 20 13C29.2048 13 36.6667 20.4619 36.6667 29.6667H3.33337Z" fill="#EEB83B"/>
<path d="M23.3333 35.6667L22 32.3333H18L16.6666 35.6667H23.3333Z" fill="#754C24"/>
<path d="M18 7.66666H22C22.7364 7.66666 23.3333 8.26357 23.3333 8.99999C23.3333 9.73641 22.7364 10.3333 22 10.3333H18C17.2635 10.3333 16.6666 9.73641 16.6666 8.99999C16.6666 8.26357 17.2635 7.66666 18 7.66666Z" fill="#EEB83B"/>
<path d="M3.33333 29.6667H36.6667C37.4031 29.6667 38 30.2636 38 31V32.3333H2V31C2 30.2636 2.59692 29.6667 3.33333 29.6667Z" fill="#CD9829"/>
<path d="M1.99996 35.6667H38C38.7364 35.6667 39.3333 36.2636 39.3333 37V38.3333H0.666626V37C0.666626 36.2636 1.26354 35.6667 1.99996 35.6667Z" fill="#CD9829"/>
<path d="M38 35H23.7847L22.9847 33H38C38.3682 33 38.6667 32.7015 38.6667 32.3333V31C38.664 30.15 38.1233 29.3949 37.3193 29.1187C37.0218 20.0283 29.7548 12.7107 20.6667 12.35V11H22C23.1046 11 24 10.1046 24 9C24 7.89542 23.1046 7 22 7H18C16.8954 7 16 7.89542 16 9C16 10.1046 16.8954 11 18 11H19.3333V12.35C10.2453 12.7107 2.97825 20.0283 2.68067 29.1187C1.87675 29.3949 1.336 30.15 1.33333 31V32.3333C1.33333 32.7015 1.63183 33 2 33H17.0153L16.2153 35H2C0.895417 35 0 35.8954 0 37V38.3333C0 38.7015 0.2985 39 0.666667 39H39.3333C39.7015 39 40 38.7015 40 38.3333V37C40 35.8954 39.1046 35 38 35ZM17.3333 9C17.3333 8.63183 17.6318 8.33333 18 8.33333H22C22.3682 8.33333 22.6667 8.63183 22.6667 9C22.6667 9.36817 22.3682 9.66667 22 9.66667H18C17.6318 9.66667 17.3333 9.36817 17.3333 9ZM20 13.6667C28.5731 13.677 35.6185 20.4348 35.986 29H4.014C4.3815 20.4348 11.4269 13.677 20 13.6667ZM2.66667 31C2.66667 30.6318 2.96517 30.3333 3.33333 30.3333H36.6667C37.0348 30.3333 37.3333 30.6318 37.3333 31V31.6667H2.66667V31ZM18.4513 33H21.5487L22.3487 35H17.6513L18.4513 33ZM38.6667 37.6667H1.33333V37C1.33333 36.6318 1.63183 36.3333 2 36.3333H38C38.3682 36.3333 38.6667 36.6318 38.6667 37V37.6667Z" fill="black"/>
<path d="M6.16797 24.778L7.4253 25.222C8.52647 22.1067 10.7452 19.5111 13.6513 17.9387L13.0153 16.7667C9.81881 18.4962 7.37864 21.3512 6.16797 24.778Z" fill="black"/>
<path d="M14.4127 16.102L14.9207 17.3347C15.3351 17.1637 15.7579 17.0138 16.1874 16.8853L15.8074 15.6073C15.3345 15.7487 14.8691 15.9138 14.4127 16.102Z" fill="black"/>
<path d="M19.3334 1H20.6667V5H19.3334V1Z" fill="black"/>
<path d="M10.6666 8.33334H14.6666V9.66668H10.6666V8.33334Z" fill="black"/>
<path d="M12.7008 3.3095L13.6436 2.36667L16.4721 5.19509L15.5292 6.13792L12.7008 3.3095Z" fill="black"/>
<path d="M23.5287 5.19316L26.3571 2.36475L27.2999 3.30758L24.4715 6.136L23.5287 5.19316Z" fill="black"/>
<path d="M25.3334 8.33334H29.3334V9.66668H25.3334V8.33334Z" fill="black"/>
</svg>