<svg id="Layer_1" enable-background="new 0 0 256 256" height="512" viewBox="0 0 256 256" width="512" xmlns="http://www.w3.org/2000/svg"><g><path d="m226.278 26.114s3.408 12.659 13.222 13.246c0 0-13.1 4.525-13.321 14.202 0 0-2.579-13.572-12.925-14.059 0 0 12.05-1.825 13.024-13.389z" fill="#d6df58"/><path d="m226.178 55.062c-.713 0-1.335-.506-1.473-1.217-.023-.124-2.494-12.417-11.521-12.842-.77-.037-1.388-.651-1.428-1.421-.04-.771.511-1.445 1.273-1.561.441-.069 10.895-1.817 11.754-12.033.061-.725.635-1.301 1.359-1.367.74-.057 1.394.399 1.584 1.102.031.116 3.259 11.626 11.863 12.14.714.043 1.297.584 1.396 1.292.098.708-.318 1.388-.994 1.623-.121.042-12.119 4.311-12.312 12.819-.018.767-.61 1.396-1.375 1.459-.042.004-.084.006-.126.006zm-7.74-15.73c3.878 1.969 6.23 5.746 7.586 8.876 2.026-4.022 5.941-6.787 8.949-8.427-4.135-1.842-6.783-5.651-8.334-8.722-1.793 4.36-5.271 6.868-8.201 8.273z" fill="#3a312a"/><path d="m204.579 43.094s2.411 8.954 9.352 9.369c0 0-9.266 3.201-9.422 10.045 0 0-1.824-9.6-9.142-9.944 0 .001 8.524-1.291 9.212-9.47z" fill="#d6df58"/><path d="m204.508 64.009c-.714 0-1.337-.507-1.473-1.22-.016-.082-1.704-8.442-7.738-8.726-.771-.037-1.388-.651-1.428-1.421-.04-.771.511-1.445 1.273-1.561.296-.047 7.363-1.243 7.941-8.114.061-.726.636-1.303 1.361-1.368.714-.059 1.392.399 1.581 1.102.022.079 2.229 7.919 7.995 8.264.714.043 1.299.584 1.396 1.293s-.32 1.388-.996 1.622c-.081.028-8.283 2.953-8.413 8.662-.018.767-.611 1.397-1.376 1.461-.04.004-.082.006-.123.006zm-4.519-11.528c2.107 1.333 3.522 3.394 4.446 5.28 1.377-2.232 3.516-3.872 5.365-4.973-2.286-1.269-3.884-3.35-4.941-5.224-1.173 2.288-3.014 3.876-4.87 4.917z" fill="#3a312a"/><path d="m204.579 16.437s2.411 8.954 9.352 9.37c0 0-9.266 3.201-9.422 10.045 0 0-1.824-9.6-9.142-9.944 0-.001 8.524-1.292 9.212-9.471z" fill="#d6df58"/><path d="m204.508 37.352c-.714 0-1.337-.507-1.473-1.22-.016-.082-1.704-8.442-7.738-8.726-.771-.037-1.388-.651-1.428-1.421-.04-.771.511-1.445 1.273-1.561.296-.047 7.363-1.243 7.941-8.114.061-.725.636-1.303 1.361-1.368.714-.058 1.392.399 1.581 1.101.022.079 2.229 7.92 7.995 8.265.714.043 1.299.585 1.396 1.294s-.32 1.388-.996 1.622c-.081.028-8.283 2.953-8.413 8.662-.018.767-.611 1.397-1.376 1.461-.04.003-.082.005-.123.005zm-4.519-11.528c2.107 1.333 3.522 3.395 4.446 5.28 1.377-2.232 3.516-3.872 5.366-4.973-2.287-1.27-3.885-3.35-4.942-5.224-1.173 2.287-3.014 3.876-4.87 4.917z" fill="#3a312a"/><path d="m83.268 187.291h148.851c4.076 0 7.381-3.305 7.381-7.381v-11.205c0-4.076-3.305-7.381-7.381-7.381h-208.238c-4.076 0-7.381 3.305-7.381 7.381v11.205c0 4.076 3.305 7.381 7.381 7.381h46.851z" fill="#8ac2d9"/><path d="m232.119 188.791h-148.851c-.828 0-1.5-.671-1.5-1.5s.672-1.5 1.5-1.5h148.852c3.243 0 5.881-2.638 5.881-5.881v-11.206c0-3.243-2.638-5.881-5.881-5.881h-208.239c-3.243 0-5.881 2.638-5.881 5.881v11.206c0 3.243 2.638 5.881 5.881 5.881h46.852c.828 0 1.5.671 1.5 1.5s-.672 1.5-1.5 1.5h-46.852c-4.896 0-8.881-3.984-8.881-8.881v-11.206c0-4.897 3.984-8.881 8.881-8.881h208.238c4.896 0 8.881 3.984 8.881 8.881v11.206c0 4.897-3.984 8.881-8.881 8.881z" fill="#3a312a"/><path d="m34.5 187.291h15v52.279h-15z" fill="#8ac2d9"/><path d="m49.5 241.07h-15c-.828 0-1.5-.671-1.5-1.5v-52.279c0-.829.672-1.5 1.5-1.5h15c.828 0 1.5.671 1.5 1.5v52.279c0 .829-.672 1.5-1.5 1.5zm-13.5-3h12v-49.279h-12z" fill="#3a312a"/><path d="m206.5 187.291h15v52.279h-15z" fill="#8ac2d9"/><path d="m221.5 241.07h-15c-.828 0-1.5-.671-1.5-1.5v-52.279c0-.829.672-1.5 1.5-1.5h15c.828 0 1.5.671 1.5 1.5v52.279c0 .829-.672 1.5-1.5 1.5zm-13.5-3h12v-49.279h-12z" fill="#3a312a"/><path d="m53.167 127.081v24.7c-.95-.08-1.93-.12-2.93-.12-.99 0-1.97.04-2.92.12v-24.7c.96.14 1.94.2 2.93.2.98 0 1.96-.06 2.92-.2z" fill="#fce8cb"/><path d="m53.167 153.281c-.042 0-.084-.002-.126-.005-1.803-.152-3.783-.153-5.598 0-.418.037-.832-.106-1.142-.39-.309-.284-.484-.684-.484-1.104v-24.7c0-.436.189-.85.518-1.135.33-.285.768-.411 1.198-.35 1.67.244 3.733.246 5.416 0 .431-.061.869.065 1.198.35s.519.699.519 1.135v24.7c0 .42-.176.82-.484 1.104-.278.255-.64.395-1.015.395zm-2.93-3.12c.48 0 .958.009 1.43.027v-21.449c-.929.056-1.921.056-2.85 0v21.449c.47-.018.944-.027 1.42-.027z" fill="#3a312a"/><path d="m68.554 161.324h-36.623c0-5.337 8.198-9.661 18.309-9.661 10.116-.001 18.314 4.324 18.314 9.661z" fill="#fce8cb"/><path d="m68.555 162.824h-36.624c-.828 0-1.5-.671-1.5-1.5 0-6.259 8.701-11.162 19.809-11.162 11.111 0 19.815 4.903 19.815 11.162 0 .828-.672 1.5-1.5 1.5zm-34.826-3h33.028c-1.499-3.737-8.455-6.662-16.517-6.662-8.06 0-15.013 2.924-16.511 6.662z" fill="#3a312a"/><path d="m30.294 74.647c-3.946 5.578-6.336 12.823-6.336 20.75 0 17.61 11.768 31.885 26.285 31.885s26.285-14.275 26.285-31.885c0-7.927-2.39-15.172-6.336-20.75z" fill="#fce8cb"/><path d="m50.242 128.783c-15.32 0-27.784-14.977-27.784-33.386 0-7.913 2.348-15.59 6.611-21.616.281-.398.738-.634 1.225-.634h39.897c.486 0 .943.236 1.225.634 4.264 6.026 6.611 13.703 6.611 21.616 0 18.409-12.465 33.386-27.785 33.386zm-19.16-52.636c-3.632 5.425-5.624 12.228-5.624 19.25 0 16.755 11.118 30.386 24.784 30.386 13.667 0 24.785-13.631 24.785-30.386 0-7.022-1.992-13.825-5.624-19.25z" fill="#3a312a"/><path d="m23.966 95.809c.182 17.419 11.873 31.474 26.276 31.474s26.094-14.055 26.276-31.474z" fill="#eb6e7a"/><path d="m50.242 128.783c-15.125 0-27.586-14.785-27.776-32.958-.004-.4.152-.786.434-1.071s.666-.445 1.066-.445h52.554c.4 0 .784.16 1.066.445.281.285.438.67.434 1.071-.191 18.173-12.652 32.958-27.778 32.958zm-24.729-31.474c.812 15.834 11.656 28.474 24.729 28.474 13.074 0 23.918-12.64 24.731-28.474z" fill="#3a312a"/><path d="m98.242 29.498h13.441v17.571h-13.441z" fill="#87796f"/><path d="m111.684 48.569h-13.442c-.828 0-1.5-.671-1.5-1.5v-17.571c0-.829.672-1.5 1.5-1.5h13.441c.828 0 1.5.671 1.5 1.5v17.571c.001.828-.671 1.5-1.499 1.5zm-11.942-3h10.441v-14.571h-10.441z" fill="#3a312a"/><path d="m115.233 19.974v5.98c0 1.957-1.587 3.544-3.544 3.544h-13.448c-1.957 0-3.544-1.587-3.544-3.544v-5.98c0-1.957 1.587-3.544 3.544-3.544h13.447c1.958 0 3.545 1.587 3.545 3.544z" fill="#87796f"/><path d="m111.688 30.998h-13.447c-2.781 0-5.044-2.263-5.044-5.044v-5.979c0-2.782 2.263-5.044 5.044-5.044h13.447c2.781 0 5.044 2.263 5.044 5.044v5.979c0 2.781-2.262 5.044-5.044 5.044zm-13.447-13.068c-1.127 0-2.044.917-2.044 2.044v5.979c0 1.127.917 2.044 2.044 2.044h13.447c1.127 0 2.044-.917 2.044-2.044v-5.979c0-1.127-.917-2.044-2.044-2.044z" fill="#3a312a"/><path d="m102.368 47.071h5.193c9.701 0 17.566 7.865 17.566 17.566v96.687h-40.324v-96.688c0-9.701 7.864-17.565 17.565-17.565z" fill="#eb6e7a"/><path d="m125.127 162.824h-40.324c-.828 0-1.5-.671-1.5-1.5v-96.687c0-10.513 8.553-19.066 19.066-19.066h5.193c10.513 0 19.065 8.553 19.065 19.066v96.687c0 .828-.672 1.5-1.5 1.5zm-38.824-3h37.324v-95.187c0-8.859-7.207-16.066-16.065-16.066h-5.193c-8.858 0-16.066 7.207-16.066 16.066z" fill="#3a312a"/><path d="m84.803 80.674h40.325v47.045h-40.325z" fill="#d6df58"/><path d="m125.127 129.22h-40.324c-.828 0-1.5-.671-1.5-1.5v-47.046c0-.829.672-1.5 1.5-1.5h40.324c.828 0 1.5.671 1.5 1.5v47.045c0 .829-.672 1.501-1.5 1.501zm-38.824-3h37.324v-44.046h-37.324z" fill="#3a312a"/><path d="m169.572 150.902h-31.782c-2.622 0-4.748 2.126-4.748 4.748v.925c0 2.622 2.126 4.748 4.748 4.748h89.504c2.622 0 4.748-2.126 4.748-4.748v-.925c0-2.622-2.126-4.748-4.748-4.748h-45.199z" fill="#eb6e7a"/><path d="m227.294 162.824h-89.504c-3.444 0-6.247-2.803-6.247-6.248v-.925c0-3.445 2.803-6.248 6.247-6.248h31.781c.828 0 1.5.671 1.5 1.5s-.672 1.5-1.5 1.5h-31.781c-1.79 0-3.247 1.457-3.247 3.248v.925c0 1.791 1.457 3.248 3.247 3.248h89.504c1.792 0 3.249-1.457 3.249-3.248v-.925c0-1.791-1.457-3.248-3.249-3.248h-45.198c-.828 0-1.5-.671-1.5-1.5s.672-1.5 1.5-1.5h45.198c3.445 0 6.249 2.803 6.249 6.248v.925c0 3.445-2.804 6.248-6.249 6.248z" fill="#3a312a"/><path d="m182.095 150.902h40.829v-10.676c0-20.323-16.475-36.798-36.798-36.798h-7.167c-20.323 0-36.798 16.475-36.798 36.798v10.676h27.411z" fill="#eb6e7a"/><path d="m222.924 152.402h-40.828c-.828 0-1.5-.671-1.5-1.5s.672-1.5 1.5-1.5h39.328v-9.176c0-19.463-15.835-35.298-35.298-35.298h-7.167c-19.463 0-35.298 15.834-35.298 35.298v9.176h25.91c.828 0 1.5.671 1.5 1.5s-.672 1.5-1.5 1.5h-27.41c-.828 0-1.5-.671-1.5-1.5v-10.676c0-21.118 17.181-38.298 38.298-38.298h7.167c21.117 0 38.298 17.18 38.298 38.298v10.676c0 .829-.672 1.5-1.5 1.5z" fill="#3a312a"/><path d="m187.753 98.218c0 2.878-2.333 5.211-5.21 5.211s-5.211-2.333-5.211-5.211 2.333-5.211 5.211-5.211 5.21 2.333 5.21 5.211z" fill="#eb6e7a"/><path d="m182.542 104.929c-3.7 0-6.71-3.01-6.71-6.71s3.01-6.711 6.71-6.711 6.711 3.01 6.711 6.711-3.011 6.71-6.711 6.71zm0-10.421c-2.046 0-3.71 1.665-3.71 3.711s1.664 3.71 3.71 3.71 3.711-1.665 3.711-3.71-1.665-3.711-3.711-3.711z" fill="#3a312a"/><path d="m238 168.7v11.21c0 3.24-2.64 5.88-5.88 5.88h-18c3.24 0 5.88-2.64 5.88-5.88v-11.21c0-3.24-2.64-5.88-5.88-5.88h18c3.24 0 5.88 2.64 5.88 5.88z" fill="#6ca8bf"/><g fill="#d24e5c"><path d="m230.54 155.65v.92c0 1.8-1.46 3.25-3.25 3.25h-18c1.79 0 3.25-1.45 3.25-3.25v-.92c0-1.79-1.46-3.25-3.25-3.25h18c1.79 0 3.25 1.46 3.25 3.25z"/><path d="m221.42 140.23v9.17h-18v-9.17c0-17.63-12.98-32.27-29.87-34.88 1.77-.28 3.57-.42 5.41-.42h7.17c19.46 0 35.29 15.83 35.29 35.3z"/></g></g></svg>