<svg height="512" viewBox="0 0 512 512" width="512" xmlns="http://www.w3.org/2000/svg"><g id="filled_outline" data-name="filled outline"><circle cx="408" cy="272" fill="#f7a014" r="25"/><path d="m433 272a25 25 0 0 1 -50 0 23.835 23.835 0 0 1 .25-3.5 25 25 0 0 0 49.5 0 23.835 23.835 0 0 1 .25 3.5z" fill="#d78e0c"/><path d="m265.05 92.989 10.085 31.04h32.637a10.443 10.443 0 0 1 6.138 18.892l-26.4 19.183 10.085 31.04a10.444 10.444 0 0 1 -16.071 11.676l-26.4-19.184-26.4 19.184a10.444 10.444 0 0 1 -16.071-11.676l10.086-31.04-26.4-19.183a10.443 10.443 0 0 1 6.138-18.892h32.623l10.085-31.04a10.444 10.444 0 0 1 19.865 0z" fill="#f7a014"/><g fill="#ffc864"><path d="m256 59.433a8 8 0 0 1 -8-8v-27.433a8 8 0 0 1 16 0v27.433a8 8 0 0 1 -8 8z"/><path d="m184.887 88.889a7.982 7.982 0 0 1 -5.658-2.343l-19.394-19.4a8 8 0 0 1 11.314-11.314l19.4 19.394a8 8 0 0 1 -5.657 13.658z"/><path d="m155.431 160h-27.431a8 8 0 0 1 0-16h27.429a8 8 0 0 1 0 16z"/><path d="m165.492 250.51a8 8 0 0 1 -5.657-13.657l19.394-19.4a8 8 0 0 1 11.315 11.314l-19.4 19.4a7.974 7.974 0 0 1 -5.652 2.343z"/><path d="m256 288a8 8 0 0 1 -8-8v-27.429a8 8 0 0 1 16 0v27.429a8 8 0 0 1 -8 8z"/><path d="m346.508 250.51a7.974 7.974 0 0 1 -5.657-2.343l-19.395-19.4a8 8 0 0 1 11.315-11.314l19.394 19.4a8 8 0 0 1 -5.657 13.657z"/><path d="m384 160h-27.431a8 8 0 0 1 0-16h27.431a8 8 0 0 1 0 16z"/><path d="m327.113 88.889a8 8 0 0 1 -5.657-13.658l19.395-19.394a8 8 0 1 1 11.314 11.314l-19.394 19.4a7.982 7.982 0 0 1 -5.658 2.338z"/><path d="m214.8 68.577a8 8 0 0 1 -7.3-4.715l-9.409-20.879a8 8 0 0 1 14.587-6.574l9.409 20.879a8 8 0 0 1 -7.287 11.289z"/><path d="m162.213 124.494a7.982 7.982 0 0 1 -2.832-.52l-21.419-8.11a8 8 0 1 1 5.666-14.963l21.419 8.11a8 8 0 0 1 -2.834 15.483z"/><path d="m143.7 210.622a8 8 0 0 1 -3.292-15.3l20.879-9.409a8 8 0 0 1 6.573 14.587l-20.879 9.409a7.948 7.948 0 0 1 -3.281.713z"/><path d="m212.38 275.209a8.006 8.006 0 0 1 -7.481-10.835l8.11-21.419a8 8 0 0 1 14.963 5.666l-8.11 21.419a8 8 0 0 1 -7.482 5.169z"/><path d="m306.623 272.31a8 8 0 0 1 -7.3-4.715l-9.409-20.879a8 8 0 0 1 14.587-6.574l9.409 20.879a8 8 0 0 1 -7.288 11.289z"/><path d="m371.2 203.623a7.99 7.99 0 0 1 -2.832-.52l-21.419-8.11a8 8 0 0 1 5.666-14.963l21.419 8.11a8 8 0 0 1 -2.834 15.483z"/><path d="m347.432 118.8a8 8 0 0 1 -3.292-15.3l20.879-9.409a8 8 0 0 1 6.574 14.587l-20.879 9.409a7.971 7.971 0 0 1 -3.282.713z"/><path d="m291.509 66.218a8.006 8.006 0 0 1 -7.481-10.835l8.11-21.419a8 8 0 1 1 14.962 5.666l-8.11 21.419a8 8 0 0 1 -7.481 5.169z"/></g><circle cx="104" cy="272" fill="#f7a014" r="25"/><path d="m129 272a25 25 0 0 1 -50 0 23.835 23.835 0 0 1 .25-3.5 25 25 0 0 0 49.5 0 23.835 23.835 0 0 1 .25 3.5z" fill="#d78e0c"/><path d="m80 296h48v128h-48z" fill="#f7a014"/><path d="m80 424h48a8 8 0 0 1 8 8v24a0 0 0 0 1 0 0h-64a0 0 0 0 1 0 0v-24a8 8 0 0 1 8-8z" fill="#a3612d"/><path d="m384 296h48v128h-48z" fill="#f7a014" transform="matrix(-1 0 0 -1 816 720)"/><path d="m376 424h64a0 0 0 0 1 0 0v24a8 8 0 0 1 -8 8h-48a8 8 0 0 1 -8-8v-24a0 0 0 0 1 0 0z" fill="#a3612d" transform="matrix(-1 0 0 -1 816 880)"/><path d="m328 408h-144l-80 80h304z" fill="#ea2b2d"/><path d="m144 488a7.967 7.967 0 0 1 1.926-5.206l20.571-24a8 8 0 0 1 12.149 10.412l-16.109 18.794z" fill="#cb2527"/><path d="m192 449.333a8 8 0 0 1 -6.07-13.206l8-9.333a8 8 0 1 1 12.148 10.412l-8 9.333a7.982 7.982 0 0 1 -6.078 2.794z" fill="#cb2527"/><path d="m184 376h144v32h-144z" fill="#ea2b2d"/><path d="m184 400h144v8h-144z" fill="#cb2527"/><path d="m200 344h112v32h-112z" fill="#ea2b2d"/><path d="m200 368h112v8h-112z" fill="#cb2527"/><path d="m216 312h80v32h-80z" fill="#ea2b2d"/><path d="m216 336h80v8h-80z" fill="#cb2527"/><path d="m256 388.019a396.189 396.189 0 0 1 -96.029-11.781l-.1-.026-8.954-2.367a8 8 0 0 1 4.083-15.469l8.9 2.353a381.285 381.285 0 0 0 184.2 0l8.894-2.353a8 8 0 0 1 4.092 15.469l-8.948 2.367-.106.026a396.189 396.189 0 0 1 -96.032 11.781z" fill="#009cf7"/><path d="m72 456h64a8 8 0 0 1 8 8v24a0 0 0 0 1 0 0h-80a0 0 0 0 1 0 0v-24a8 8 0 0 1 8-8z" fill="#915628"/><path d="m368 456h80a0 0 0 0 1 0 0v24a8 8 0 0 1 -8 8h-64a8 8 0 0 1 -8-8v-24a0 0 0 0 1 0 0z" fill="#915628" transform="matrix(-1 0 0 -1 816 944)"/><path d="m128 352h16a16 16 0 0 1 16 16 16 16 0 0 1 -16 16h-16z" fill="#d78e0c"/><path d="m384 352h-16a16 16 0 0 0 -16 16 16 16 0 0 0 16 16h16z" fill="#d78e0c"/><path d="m184.923 128.772a18.168 18.168 0 0 0 6.7 20.621l21.7 15.767-8.289 25.511a18.169 18.169 0 0 0 6.7 20.62 18.169 18.169 0 0 0 21.683 0l21.7-15.767 21.7 15.768a18.443 18.443 0 0 0 28.381-20.62l-8.289-25.512 21.7-15.766a18.444 18.444 0 0 0 -10.84-33.366h-26.822l-8.289-25.51a18.442 18.442 0 0 0 -35.081 0l-8.289 25.51h-26.825a18.168 18.168 0 0 0 -17.54 12.744zm15.217 4.945a2.274 2.274 0 0 1 2.323-1.689h32.637a8 8 0 0 0 7.608-5.528l10.085-31.039a2.443 2.443 0 0 1 4.647 0l10.086 31.039a8 8 0 0 0 7.609 5.528h32.637a2.444 2.444 0 0 1 1.436 4.421l-26.4 19.184a8 8 0 0 0 -2.907 8.943l10.085 31.039a2.442 2.442 0 0 1 -3.759 2.732l-26.4-19.183a8 8 0 0 0 -9.4 0l-26.4 19.183a2.443 2.443 0 0 1 -3.76-2.732l10.085-31.039a8 8 0 0 0 -2.906-8.943l-26.4-19.185a2.274 2.274 0 0 1 -.906-2.731z"/><path d="m264 51.433v-27.433a8 8 0 0 0 -16 0v27.433a8 8 0 0 0 16 0z"/><path d="m171.149 55.837a8 8 0 0 0 -11.314 11.314l19.394 19.4a8 8 0 0 0 11.315-11.315z"/><path d="m128 160h27.429a8 8 0 0 0 0-16h-27.429a8 8 0 0 0 0 16z"/><path d="m165.492 250.51a7.974 7.974 0 0 0 5.657-2.343l19.4-19.4a8 8 0 0 0 -11.315-11.314l-19.394 19.4a8 8 0 0 0 5.657 13.657z"/><path d="m248 252.571v27.429a8 8 0 0 0 16 0v-27.429a8 8 0 0 0 -16 0z"/><path d="m321.456 217.458a8 8 0 0 0 0 11.314l19.395 19.4a8 8 0 1 0 11.314-11.314l-19.394-19.4a8 8 0 0 0 -11.315 0z"/><path d="m392 152a8 8 0 0 0 -8-8h-27.431a8 8 0 0 0 0 16h27.431a8 8 0 0 0 8-8z"/><path d="m340.851 55.837-19.395 19.394a8 8 0 0 0 11.315 11.315l19.394-19.4a8 8 0 1 0 -11.314-11.314z"/><path d="m214.8 68.577a8 8 0 0 0 7.288-11.289l-9.409-20.879a8 8 0 0 0 -14.587 6.574l9.408 20.879a8 8 0 0 0 7.3 4.715z"/><path d="m133.313 105.55a8 8 0 0 0 4.649 10.314l21.419 8.11a8 8 0 0 0 5.666-14.963l-21.419-8.11a8 8 0 0 0 -10.315 4.649z"/><path d="m171.866 189.923a8 8 0 0 0 -10.58-4.006l-20.879 9.409a8 8 0 1 0 6.574 14.587l20.879-9.413a8 8 0 0 0 4.006-10.577z"/><path d="m213.009 242.955-8.11 21.419a8 8 0 1 0 14.963 5.666l8.11-21.419a8 8 0 0 0 -14.963-5.666z"/><path d="m293.921 236.136a8 8 0 0 0 -4.006 10.58l9.409 20.879a8 8 0 0 0 14.587-6.574l-9.411-20.879a8 8 0 0 0 -10.579-4.006z"/><path d="m371.2 203.623a8 8 0 0 0 2.834-15.483l-21.419-8.11a8 8 0 0 0 -5.666 14.963l21.419 8.11a7.99 7.99 0 0 0 2.832.52z"/><path d="m365.019 94.091-20.879 9.409a8 8 0 1 0 6.574 14.587l20.879-9.409a8 8 0 0 0 -6.574-14.587z"/><path d="m291.509 66.218a8 8 0 0 0 7.482-5.169l8.109-21.419a8 8 0 1 0 -14.963-5.666l-8.11 21.419a8.006 8.006 0 0 0 7.481 10.835z"/><path d="m447.85 450.074c.088-.681.15-18.074.15-18.074a16 16 0 0 0 -8-13.835v-122.165a8 8 0 0 0 -4.721-7.292 32 32 0 1 0 -54.558 0 8 8 0 0 0 -4.721 7.292v48h-8a24.04 24.04 0 0 0 -23.1 17.5q-12.368 2.974-24.9 5.116v-22.616a8 8 0 0 0 -8-8h-8v-24a8 8 0 0 0 -8-8h-80a8 8 0 0 0 -8 8v24h-8a8 8 0 0 0 -8 8v22.617q-12.526-2.133-24.9-5.116a24.04 24.04 0 0 0 -23.1-17.501h-8v-48a8 8 0 0 0 -4.721-7.292 32 32 0 1 0 -54.558 0 8 8 0 0 0 -4.721 7.292v122.165a16 16 0 0 0 -8 13.835s.062 17.393.15 18.074a16 16 0 0 0 -8.15 13.926v24a8 8 0 0 0 8 8h384a8 8 0 0 0 8-8v-24a16 16 0 0 0 -8.15-13.926zm-367.86-18.074h48.01v16h-48zm8.01-128h32v112h-32zm77.952 73.683q5.01 1.17 10.048 2.2v24.806l-32 32v-4.689a16 16 0 0 0 -8-13.835v-26.165h8a24.029 24.029 0 0 0 21.952-14.317zm202.048 14.317h8v26.165a16 16 0 0 0 -8 13.835v4.686l-32-32v-24.806q5.036-1.036 10.048-2.2a24.03 24.03 0 0 0 21.952 14.32zm56-88v112h-32v-112zm-104 96h-128v-16h7.638a397.9 397.9 0 0 0 56.362 4.019 397.918 397.918 0 0 0 56.358-4.019h7.642zm-142.223 57.926a8 8 0 0 0 -11.28.868l-14.497 16.914v-11.708a15.9 15.9 0 0 0 -3.168-9.517l38.481-38.483h137.374l38.481 38.483a15.9 15.9 0 0 0 -3.168 9.517v16h-190.606l9.252-10.794a8 8 0 0 0 -.869-11.28zm206.223-9.926v-16h48v16zm24-192a16 16 0 1 1 -16 16 16.019 16.019 0 0 1 16-16zm-40 104h8v16h-8a8 8 0 0 1 0-16zm-144-40h64v16h-64zm-16 32h96v16h-96zm-64 8a8 8 0 0 1 0 16h-8v-16zm-40-104a16 16 0 1 1 -16 16 16.019 16.019 0 0 1 16-16zm-32 208h64v16h-64zm368 16h-64v-16h64z"/><path d="m186.794 447.407a8 8 0 0 0 11.28-.868l8-9.333a8 8 0 1 0 -12.148-10.412l-8 9.333a8 8 0 0 0 .868 11.28z"/></g></svg>